# xmcd CD database file generated by OrangeCD 5.2
#
# Track frame offsets:
#	150
#	16626
#	35432
#	54416
#	70294
#	92580
#	116156
#	132641
#	156173
#	170396
#	188219
#
# Disc length: 2761 seconds
#
# Revision: 0
# Processed by: cddbd v1.5.1PL0 Copyright (c) Steve Scherf et al.
# Submitted via: OrangeCD 5.2
#
DISCID=8f0ac70b
DTITLE=Boots - Our Time
DYEAR=2004
DGENRE=Country
TTITLE0=The Blue Beetle
TTITLE1=Little Boy's Dream
TTITLE2=I have my Chances
TTITLE3=The Generation
TTITLE4=Country Boy
TTITLE5=Never Alone
TTITLE6=Our Time
TTITLE7=High and Low
TTITLE8=Stars and Stripes
TTITLE9=Ganske Bra
TTITLE10=Living That Way
EXTD=
EXTT0=
EXTT1=
EXTT2=
EXTT3=
EXTT4=
EXTT5=
EXTT6=
EXTT7=
EXTT8=
EXTT9=
EXTT10=
PLAYORDER=
